<svg width="83" height="30" viewBox="0 0 83 30" fill="none" xmlns="http://www.w3.org/2000/svg">
<path d="M23.4657 17.2734V14.2544H18.9631V22.3902H16.654V6.52802H18.9631V12.3612H23.4657V6.37451H25.7748V16.864C25.7748 19.1666 26.4964 20.1899 28.055 20.497V22.3902C25.1687 22.2367 23.4657 20.5481 23.4657 17.2734ZM7.1292 20.497H14.3739V22.3902H0V20.497H3.69448C3.31926 20.1388 3.11722 19.6527 3.11722 18.6805V12.2589H12.9307V14.1521H5.42627V18.7828C5.42627 19.9853 6.00354 20.497 7.1292 20.497Z" fill="black"/>
<path d="M47.6452 17.0175V6.37451H50.012V12.1309H54.0528V14.0242H50.012V16.9408C50.012 19.141 50.7047 20.497 53.0137 20.497H53.7353V22.3902H52.9849C49.5213 22.3902 47.6452 20.5993 47.6452 17.0175ZM42.7673 13.2822V22.3902H27.9894V20.497H40.4005V14.0242H33.762V19.1154H31.3952V12.1309H41.4685C42.3055 12.1309 42.7673 12.5403 42.7673 13.2822Z" fill="black"/>
<path d="M61.3162 13.0776V15.8918H71.4471V17.785H60.2482C59.4112 17.785 58.9494 17.3757 58.9494 16.6337V11.2099H68.7917V8.49799H58.9494V6.60477H69.8597C70.6967 6.60477 71.1585 7.01412 71.1585 7.75606V13.0776H61.3162ZM76.527 20.497V22.3902H66.2806V29.2979H63.9138V22.3902H53.6674V20.497H76.527Z" fill="black"/>
<circle cx="79.3638" cy="3.53814" r="2.83648" fill="#FF8A3D"/>
</svg>
